<svg xmlns="http://www.w3.org/2000/svg" width="30" height="30"><path d="M30 24a1.5 1.5 0 01-1 1.41v1.68A1.5 1.5 0 1127.092 29h-1.684a1.491 1.491 0 01-2.816 0h-1.684a1.491 1.491 0 01-2.816 0h-1.684a1.491 1.491 0 01-2.816 0h-1.684a1.491 1.491 0 01-2.816 0H7.408a1.491 1.491 0 01-2.816 0H2.908A1.5 1.5 0 111 27.09v-1.68a1.494 1.494 0 010-2.82v-1.68a1.494 1.494 0 010-2.82v-1.68a1.494 1.494 0 010-2.82v-1.68a1.494 1.494 0 010-2.82V7.41a1.494 1.494 0 010-2.82V2.91A1.5 1.5 0 112.908 1h1.684a1.491 1.491 0 012.816 0h1.684a1.491 1.491 0 012.816 0h1.684a1.491 1.491 0 012.816 0h1.684a1.491 1.491 0 012.816 0h1.684a1.491 1.491 0 012.816 0h1.684A1.5 1.5 0 1129 2.91v1.68a1.494 1.494 0 010 2.82v1.68a1.494 1.494 0 010 2.82v1.68a1.494 1.494 0 010 2.82v1.68a1.494 1.494 0 010 2.82v1.68A1.5 1.5 0 0130 24zM26 4H4v22h22V4zM13 20l7-8.5 4.5 7v6h-19l6-6zm-3-7a3 3 0 113-3 3 3 0 01-3 3z" fill="#fff" fill-rule="evenodd"/></svg>