<svg width="100" height="100" viewBox="0 0 512 512" xmlns="http://www.w3.org/2000/svg"><path d="M331 361h-30l-30 30h-30l-30-30h-30c-74.559 0-135 60.441-135 135v16h420v-16c0-74.559-60.441-135-135-135z" fill="#fff5f5"/><path d="M466 496c0-74.559-60.441-135-135-135h-30l-30 30h-15v121h210z" fill="#efe2dd"/><path d="M256 316h-45v75c0 24.853 20.147 45 45 45s45-20.147 45-45v-75z" fill="#fc9"/><path d="M301 391v-75h-45v120c24.853 0 45-20.147 45-45z" fill="#ffb366"/><path d="M136.3 231.7c1.62 71.272 53.029 122.834 115.499 143.699l4.2 1.201 4.2-1.201C322.812 354.487 374.081 302.864 375.7 231.7H256zM271 0h-30c-58.555 0-105 49.045-105 106v24.3h240V106C376 49.058 329.566 0 271 0z" fill="#5a5a5a"/><path d="M376 106C376 49.058 329.566 0 271 0h-15v130.3h120zm-.3 125.7H256v144.901l4.2-1.201c62.612-20.913 113.881-72.536 115.5-143.7z" fill="#444"/><path d="M301 92.8c-17.399 8.849-31.201 13.275-45 13.275-13.801 0-27.599-4.426-45-13.275l-75 37.5v96c0 1.8 0 3.6.3 5.4l74.7 37.5c17.401-8.851 31.199-13.275 45-13.275 13.799 0 27.601 4.424 45 13.275l74.7-37.5c.3-1.8.3-3.6.3-5.7v-95.7z" fill="#ffe6cc"/><path d="M375.7 231.7c.3-1.8.3-3.6.3-5.7v-95.7l-75-37.5c-17.399 8.849-31.201 13.275-45 13.275v149.85c13.799 0 27.601 4.424 45 13.275z" fill="#fc9"/><path d="M196 181h30v30h-30z" fill="#5a5a5a"/><path d="M286 181h30v30h-30z" fill="#444"/></svg>